<svg id="Слой_1" data-name="Слой 1" xmlns="http://www.w3.org/2000/svg" xmlns:xlink="http://www.w3.org/1999/xlink" viewBox="0 0 765.47 767.34"><defs><style>.cls-1{fill:none;}.cls-2{clip-path:url(#clip-path);}.cls-3{fill:url(#Безымянный_градиент);}.cls-4{clip-path:url(#clip-path-2);}.cls-5{fill:#5e5f62;}.cls-6{fill:#f5811c;}.cls-7{clip-path:url(#clip-path-3);}.cls-8{fill:url(#Безымянный_градиент_2);}.cls-9{clip-path:url(#clip-path-5);}.cls-10{fill:url(#Безымянный_градиент_3);}.cls-11{clip-path:url(#clip-path-7);}.cls-12{fill:url(#Безымянный_градиент_4);}.cls-13{fill:#caffff;}.cls-14{fill:#7df6ff;}</style><clipPath id="clip-path" transform="translate(143.97 137.93)"><path class="cls-1" d="M256,79.45a17.65,17.65,0,1,1-35.31,0V36.9A202.09,202.09,0,0,0,36.9,220.69H79.45a17.65,17.65,0,0,1,0,35.31H36.9a197.67,197.67,0,0,0,11.48,51.73A202.24,202.24,0,1,0,256,36.9Z"/></clipPath><linearGradient id="Безымянный_градиент" y1="511.99" x2="1" y2="511.99" gradientTransform="matrix(0, 404.55, 404.55, 0, -206885.88, 36.86)" gradientUnits="userSpaceOnUse"><stop offset="0" stop-color="#09d1f1"/><stop offset="1" stop-color="#09b1f1"/></linearGradient><clipPath id="clip-path-2" transform="translate(143.97 137.93)"><rect class="cls-1" width="511.52" height="512"/></clipPath><clipPath id="clip-path-3" transform="translate(143.97 137.93)"><path class="cls-1" d="M256,79.45V36.9A202.23,202.23,0,1,1,36.9,256H79.45a17.65,17.65,0,0,0,0-35.31H36.9A202.09,202.09,0,0,1,220.69,36.9V79.45a17.65,17.65,0,1,0,35.31,0M238.34,0C106.71,0,0,106.71,0,238.34S106.71,476.69,238.34,476.69,476.69,370,476.69,238.34,370,0,238.34,0Z"/></clipPath><linearGradient id="Безымянный_градиент_2" y1="512" x2="1" y2="512" gradientTransform="matrix(476.69, 0, 0, -476.69, 143.97, 244442.27)" gradientUnits="userSpaceOnUse"><stop offset="0" stop-color="#f68726"/><stop offset="0.01" stop-color="#f68726"/><stop offset="1" stop-color="#f5811c"/></linearGradient><clipPath id="clip-path-5" transform="translate(143.97 137.93)"><path class="cls-1" d="M305.08,370.64A73.44,73.44,0,0,0,322.31,418q1.54,1.83,3.19,3.56a73.72,73.72,0,0,0,126.79-45c.15-1.94.24-3.89.24-5.86v-.05a73.72,73.72,0,1,0-147.45,0"/></clipPath><linearGradient id="Безымянный_градиент_3" y1="512" x2="1" y2="512" gradientTransform="matrix(0, 147.47, 147.47, 0, -75126.21, 332.53)" gradientUnits="userSpaceOnUse"><stop offset="0" stop-color="#f0b61d"/><stop offset="0.3" stop-color="#f2b11a"/><stop offset="0.65" stop-color="#f7a410"/><stop offset="1" stop-color="#ff8e00"/></linearGradient><clipPath id="clip-path-7" transform="translate(143.97 137.93)"><path class="cls-1" d="M293.58,412.61l-12.44,7.28A6.8,6.8,0,0,0,288,431.63l12.44-7.28a6.8,6.8,0,1,0-6.87-11.74m-24-48.78a6.8,6.8,0,0,0,0,13.6H284a6.8,6.8,0,0,0,0-13.6Zm203.94,0a6.8,6.8,0,0,0,0,13.6H488a6.8,6.8,0,1,0,0-13.6Zm-195.2-51.2a6.8,6.8,0,0,0,2.49,9.29l12.48,7.21a6.8,6.8,0,0,0,6.8-11.78l-12.48-7.21a6.8,6.8,0,0,0-9.29,2.49m191.24-3-12.44,7.28A6.8,6.8,0,1,0,464,328.65l12.44-7.28a6.8,6.8,0,1,0-6.87-11.74M320.24,270.53a6.8,6.8,0,0,0-2.43,9.3l7.28,12.44a6.8,6.8,0,1,0,11.74-6.86L329.55,273a6.8,6.8,0,0,0-9.3-2.44m107.27,2.16-7.21,12.49a6.8,6.8,0,1,0,11.78,6.8l7.21-12.49a6.8,6.8,0,1,0-11.77-6.8M372,261.45v14.42a6.8,6.8,0,1,0,13.6,0V261.45a6.8,6.8,0,0,0-13.6,0"/></clipPath><linearGradient id="Безымянный_градиент_4" y1="512" x2="1" y2="512" gradientTransform="matrix(231.96, 0, 0, -231.96, 406.8, 119242.82)" gradientUnits="userSpaceOnUse"><stop offset="0" stop-color="#f0b61d"/><stop offset="1" stop-color="#f0b61d"/></linearGradient></defs><title>day</title><g class="cls-2"><rect class="cls-3" x="-40.48" y="-36.06" width="558.5" height="563.6" transform="translate(53.09 290.23) rotate(-30)"/></g><g class="cls-4"><path d="M150.07,94.28a8.83,8.83,0,0,1-7.66-4.41L129.18,66.91a8.83,8.83,0,1,1,15.29-8.83L157.7,81a8.82,8.82,0,0,1-7.63,13.24" transform="translate(143.97 137.93)"/><path d="M85.44,158.9A8.79,8.79,0,0,1,81,157.71L58.08,144.47a8.83,8.83,0,1,1,8.82-15.29l23,13.24a8.83,8.83,0,0,1-4.41,16.47" transform="translate(143.97 137.93)"/><path d="M62.53,348.69a8.83,8.83,0,0,1-4.41-16.47L81.06,319a8.83,8.83,0,1,1,8.83,15.29L66.94,347.51a8.85,8.85,0,0,1-4.41,1.18" transform="translate(143.97 137.93)"/><path d="M417.81,144.95,407,151.22q-12.36.53-24.1,1.59a8.83,8.83,0,0,1,4-10.41l22.07-12.71c3.18,4.95,6.09,10.07,8.91,15.27" transform="translate(143.97 137.93)"/><path d="M382.85,152.8q11.78-1.06,24.1-1.59l-11.3,6.54a9,9,0,0,1-12.09-3.26,9.65,9.65,0,0,1-.71-1.68" transform="translate(143.97 137.93)"/><path class="cls-5" d="M418.61,144.51l-.8.44c-2.82-5.21-5.74-10.33-8.91-15.27l.88-.53a8.86,8.86,0,0,1,8.83,15.36" transform="translate(143.97 137.93)"/><path d="M136.83,423a8.83,8.83,0,0,1-7.64-13.24l13.24-23a8.83,8.83,0,0,1,15.29,8.83l-13.24,22.95a8.82,8.82,0,0,1-7.65,4.41" transform="translate(143.97 137.93)"/><path d="M326.62,94.28A8.83,8.83,0,0,1,319,81l13.24-23a8.83,8.83,0,1,1,15.29,8.83L334.27,89.86a8.82,8.82,0,0,1-7.65,4.41" transform="translate(143.97 137.93)"/><path d="M134.13,189.45a8.83,8.83,0,0,0,4.06,11.81l49.59,24.19,21.82,10.64a8.83,8.83,0,1,0,7.74-15.87l-27.69-13.51-43.72-21.32a8.83,8.83,0,0,0-11.8,4.06" transform="translate(143.97 137.93)"/><path d="M189.67,313.6a8.76,8.76,0,0,1,.65-6.73l26.08-49.05A8.83,8.83,0,0,1,232,266.11L205.9,315.17a8.83,8.83,0,0,1-16.23-1.56" transform="translate(143.97 137.93)"/><path class="cls-6" d="M264.83,238.34a26.48,26.48,0,1,1-26.48-26.48,26.48,26.48,0,0,1,26.48,26.48" transform="translate(143.97 137.93)"/></g><g class="cls-7"><rect class="cls-8" x="143.97" y="137.93" width="476.69" height="476.69"/></g><g class="cls-4"><path class="cls-6" d="M452.29,376.55a73.72,73.72,0,0,1-126.79,45q-1.65-1.73-3.19-3.56a56.15,56.15,0,0,1,33.12-10.76c1.7,0,3.4.08,5.08.23a66.76,66.76,0,0,1,91.79-30.93" transform="translate(143.97 137.93)"/></g><g class="cls-9"><rect class="cls-10" x="278.53" y="270.36" width="200.56" height="200.55" transform="translate(14.68 659.23) rotate(-60.89)"/></g><g class="cls-4"><path class="cls-6" d="M462.5,434.4a56.65,56.65,0,0,1-97.41,39.35A56.37,56.37,0,0,1,382.46,471c1.71,0,3.4.07,5.08.23a66.86,66.86,0,0,1,74.95-37.12,2.67,2.67,0,0,1,0,.28" transform="translate(143.97 137.93)"/></g><g class="cls-11"><rect class="cls-12" x="406.8" y="392.58" width="231.96" height="177.9"/></g><g class="cls-4"><path class="cls-13" d="M504.07,512H274.88a7.43,7.43,0,0,1-7.26-9.08,39.1,39.1,0,0,1,46.31-29.11c0-.09,0-.17-.06-.26a43.34,43.34,0,0,1-1.14-9.83c0-1.44.07-2.86.21-4.26a42.71,42.71,0,0,1,56.59-36.06.68.68,0,0,1,0-.13,52.23,52.23,0,0,1,4.82-12.72,53,53,0,0,1,99.72,25,54.19,54.19,0,0,1-.7,8.63,31.57,31.57,0,0,1,24.07,27.71c.09,1,.14,2,.14,3a31.37,31.37,0,0,1-1.87,10.69c0,.1-.06.19-.1.29A28.57,28.57,0,0,1,511,501.91a7.45,7.45,0,0,1-7,10.09" transform="translate(143.97 137.93)"/><path class="cls-14" d="M497.61,474.86a31.37,31.37,0,0,1-1.87,10.69c-4.9-1.67-17.1-4-29.73,7.62a6.8,6.8,0,0,1-9.21-10c15.95-14.69,31.87-13.61,40.67-11.29.09,1,.14,2,.14,3" transform="translate(143.97 137.93)"/><path class="cls-14" d="M395.9,447.41a7,7,0,0,1-1.76.24,6.81,6.81,0,0,1-6.56-5c-3.11-11.63-16.2-18.44-18-19.33a52.26,52.26,0,0,1,4.82-12.72,5.11,5.11,0,0,1,.53.21c.85.37,20.78,9.49,25.81,28.33a6.8,6.8,0,0,1-4.81,8.32" transform="translate(143.97 137.93)"/><path class="cls-14" d="M338.9,490.12a6.81,6.81,0,0,1-9.06-3.24c-4.25-9-14.68-12.71-14.79-12.74a5.81,5.81,0,0,1-1.19-.59,43.3,43.3,0,0,1-1.14-9.84c0-1.44.07-2.86.21-4.26a49.18,49.18,0,0,1,6.45,1.79c.65.22,16,5.5,22.76,19.82a6.8,6.8,0,0,1-3.24,9.06" transform="translate(143.97 137.93)"/><path class="cls-14" d="M447.8,428.9a6.8,6.8,0,0,1-6.8-6.8v-.6a6.8,6.8,0,1,1,13.6,0v.6a6.8,6.8,0,0,1-6.8,6.8" transform="translate(143.97 137.93)"/><path class="cls-14" d="M427.69,419.51a6.8,6.8,0,0,1-6.8-6.8v-.6a6.8,6.8,0,1,1,13.6,0v.6a6.8,6.8,0,0,1-6.8,6.8" transform="translate(143.97 137.93)"/></g></svg>