<svg id="Слой_1" data-name="Слой 1" xmlns="http://www.w3.org/2000/svg" xmlns:xlink="http://www.w3.org/1999/xlink" viewBox="0 0 765.47 767.34"><defs><style>.cls-1{fill:none;}.cls-2{clip-path:url(#clip-path);}.cls-3{fill:url(#Безымянный_градиент);}.cls-4{clip-path:url(#clip-path-2);}.cls-5{fill:#5e5f62;}.cls-6{fill:#f5811c;}.cls-7{clip-path:url(#clip-path-3);}.cls-8{fill:url(#Безымянный_градиент_2);}.cls-9{clip-path:url(#clip-path-4);}.cls-10{fill:url(#Безымянный_градиент_3);}.cls-11{clip-path:url(#clip-path-5);}.cls-12{fill:url(#Безымянный_градиент_4);}.cls-13{clip-path:url(#clip-path-6);}.cls-14{fill:url(#Безымянный_градиент_5);}.cls-15{clip-path:url(#clip-path-7);}.cls-16{fill:url(#Безымянный_градиент_6);}.cls-17{clip-path:url(#clip-path-8);}.cls-18{fill:url(#Безымянный_градиент_7);}.cls-19{clip-path:url(#clip-path-9);}.cls-20{fill:url(#Безымянный_градиент_8);}.cls-21{clip-path:url(#clip-path-10);}.cls-22{fill:url(#Безымянный_градиент_9);}.cls-23{clip-path:url(#clip-path-11);}.cls-24{fill:url(#Безымянный_градиент_10);}.cls-25{clip-path:url(#clip-path-12);}.cls-26{fill:url(#Безымянный_градиент_11);}</style><clipPath id="clip-path" transform="translate(143.97 137.93)"><path class="cls-1" d="M256,79.45a17.65,17.65,0,1,1-35.31,0V36.9A202.09,202.09,0,0,0,36.9,220.69H79.45a17.65,17.65,0,0,1,0,35.31H36.9a197.67,197.67,0,0,0,11.48,51.73A202.24,202.24,0,1,0,256,36.9Z"/></clipPath><linearGradient id="Безымянный_градиент" y1="511.99" x2="1" y2="511.99" gradientTransform="matrix(0, 404.55, 404.55, 0, -206885.88, 36.86)" gradientUnits="userSpaceOnUse"><stop offset="0" stop-color="#09d1f1"/><stop offset="1" stop-color="#09b1f1"/></linearGradient><clipPath id="clip-path-2" transform="translate(143.97 137.93)"><rect class="cls-1" width="512" height="512"/></clipPath><clipPath id="clip-path-3" transform="translate(143.97 137.93)"><path class="cls-1" d="M256,79.45V36.9A202.23,202.23,0,1,1,36.9,256H79.45a17.65,17.65,0,0,0,0-35.31H36.9A202.09,202.09,0,0,1,220.69,36.9V79.45a17.65,17.65,0,1,0,35.31,0M238.34,0C106.71,0,0,106.71,0,238.34S106.71,476.69,238.34,476.69,476.69,370,476.69,238.34,370,0,238.34,0Z"/></clipPath><linearGradient id="Безымянный_градиент_2" y1="512" x2="1" y2="512" gradientTransform="matrix(476.69, 0, 0, -476.69, 143.97, 244442.27)" gradientUnits="userSpaceOnUse"><stop offset="0" stop-color="#f68726"/><stop offset="1" stop-color="#f5811c"/></linearGradient><clipPath id="clip-path-4" transform="translate(143.97 137.93)"><path class="cls-1" d="M263.28,408.35A103.65,103.65,0,1,0,366.93,304.7,103.65,103.65,0,0,0,263.28,408.35"/></clipPath><linearGradient id="Безымянный_градиент_3" y1="512" x2="1" y2="512" gradientTransform="matrix(0, 217.24, 217.24, 0, -110859.9, 298.52)" gradientUnits="userSpaceOnUse"><stop offset="0" stop-color="#3d77b1"/><stop offset="1" stop-color="#2f5b87"/></linearGradient><clipPath id="clip-path-5" transform="translate(143.97 137.93)"><path class="cls-1" d="M391.67,279.76A96.79,96.79,0,0,0,351.53,442c37.35,36.37,97.52,36.39,134.9.06a96.37,96.37,0,0,0,25.42-42.08,3.54,3.54,0,0,0,.15-1h0a3.38,3.38,0,0,0-5.76-2.35q-1.44,1.45-3,2.85c-31.28,28.37-80,26.69-109.36-3.69a78.64,78.64,0,0,1,1-110.22l.1-.1a3.39,3.39,0,0,0-2.29-5.82,3.6,3.6,0,0,0-1,.15"/></clipPath><linearGradient id="Безымянный_градиент_4" y1="511.98" x2="1" y2="511.98" gradientTransform="matrix(189.76, 0, 0, -189.76, 466.2, 97671.88)" gradientUnits="userSpaceOnUse"><stop offset="0" stop-color="#f0b61d"/><stop offset="1" stop-color="#ff8e00"/></linearGradient><clipPath id="clip-path-6" transform="translate(143.97 137.93)"><path class="cls-1" d="M350.58,304.18A96.77,96.77,0,0,0,487.43,441c1.73-1.73,3.37-3.51,4.94-5.33A96.77,96.77,0,0,1,355.92,299.23c-1.83,1.57-3.6,3.21-5.33,4.94"/></clipPath><linearGradient id="Безымянный_градиент_5" y1="511.97" y2="511.97" gradientTransform="matrix(170.14, 0, 0, -170.14, 466.2, 87634.67)" xlink:href="#Безымянный_градиент_4"/><clipPath id="clip-path-7" transform="translate(143.97 137.93)"><path class="cls-1" d="M280.21,419v.85a7.65,7.65,0,0,0,15.3,0V419a7.65,7.65,0,1,0-15.3,0"/></clipPath><linearGradient id="Безымянный_градиент_6" y1="512" y2="512" gradientTransform="matrix(15.3, 0, 0, -15.3, 424.18, 8388.88)" xlink:href="#Безымянный_градиент_4"/><clipPath id="clip-path-8" transform="translate(143.97 137.93)"><path class="cls-1" d="M398.48,346v.85a7.65,7.65,0,1,0,15.3,0V346a7.65,7.65,0,1,0-15.3,0"/></clipPath><linearGradient id="Безымянный_градиент_7" y1="512" y2="512" gradientTransform="matrix(15.3, 0, 0, -15.3, 542.45, 8315.91)" xlink:href="#Безымянный_градиент_4"/><clipPath id="clip-path-9" transform="translate(143.97 137.93)"><path class="cls-1" d="M419.49,293.6v.85a7.65,7.65,0,0,0,15.3,0v-.85a7.65,7.65,0,0,0-15.3,0"/></clipPath><linearGradient id="Безымянный_градиент_8" y1="512" y2="512" gradientTransform="matrix(15.3, 0, 0, -15.3, 563.46, 8263.51)" xlink:href="#Безымянный_градиент_4"/><clipPath id="clip-path-10" transform="translate(143.97 137.93)"><path class="cls-1" d="M314.59,280.77v.85a7.65,7.65,0,1,0,15.3,0v-.85a7.65,7.65,0,1,0-15.3,0"/></clipPath><linearGradient id="Безымянный_градиент_9" y1="512" y2="512" gradientTransform="matrix(15.3, 0, 0, -15.3, 458.56, 8250.69)" xlink:href="#Безымянный_градиент_4"/><clipPath id="clip-path-11" transform="translate(143.97 137.93)"><path class="cls-1" d="M461.07,495.47v.85a7.65,7.65,0,1,0,15.3,0v-.85a7.65,7.65,0,0,0-15.3,0"/></clipPath><linearGradient id="Безымянный_градиент_10" y1="512" y2="512" gradientTransform="matrix(15.3, 0, 0, -15.3, 605.04, 8465.39)" xlink:href="#Безымянный_градиент_4"/><clipPath id="clip-path-12" transform="translate(143.97 137.93)"><path class="cls-1" d="M363.4,485.17V486a7.65,7.65,0,0,0,15.3,0v-.85a7.65,7.65,0,0,0-15.3,0"/></clipPath><linearGradient id="Безымянный_градиент_11" y1="512" y2="512" gradientTransform="matrix(15.3, 0, 0, -15.3, 507.37, 8455.08)" xlink:href="#Безымянный_градиент_4"/></defs><title>night</title><g class="cls-2"><rect class="cls-3" x="-40.48" y="-36.06" width="558.5" height="563.6" transform="translate(53.09 290.23) rotate(-30)"/></g><g class="cls-4"><path d="M150.07,94.28a8.83,8.83,0,0,1-7.66-4.41L129.18,66.91a8.83,8.83,0,1,1,15.29-8.83L157.7,81a8.82,8.82,0,0,1-7.63,13.24" transform="translate(143.97 137.93)"/><path d="M85.44,158.9A8.79,8.79,0,0,1,81,157.71L58.08,144.47a8.83,8.83,0,1,1,8.82-15.29l23,13.24a8.83,8.83,0,0,1-4.41,16.47" transform="translate(143.97 137.93)"/><path d="M62.53,348.69a8.83,8.83,0,0,1-4.41-16.47L81.06,319a8.83,8.83,0,1,1,8.83,15.29L66.94,347.51a8.85,8.85,0,0,1-4.41,1.18" transform="translate(143.97 137.93)"/><path d="M417.81,144.95,407,151.22q-12.36.53-24.1,1.59a8.83,8.83,0,0,1,4-10.41l22.07-12.71c3.18,4.95,6.09,10.07,8.91,15.27" transform="translate(143.97 137.93)"/><path d="M382.85,152.8q11.78-1.06,24.1-1.59l-11.3,6.54a9,9,0,0,1-12.09-3.26,9.65,9.65,0,0,1-.71-1.68" transform="translate(143.97 137.93)"/><path class="cls-5" d="M418.61,144.51l-.8.44c-2.82-5.21-5.74-10.33-8.91-15.27l.88-.53a8.86,8.86,0,0,1,8.83,15.36" transform="translate(143.97 137.93)"/><path d="M136.83,423a8.83,8.83,0,0,1-7.64-13.24l13.24-23a8.83,8.83,0,0,1,15.29,8.83l-13.24,22.95a8.82,8.82,0,0,1-7.65,4.41" transform="translate(143.97 137.93)"/><path d="M326.62,94.28A8.83,8.83,0,0,1,319,81l13.24-23a8.83,8.83,0,1,1,15.29,8.83L334.27,89.86a8.82,8.82,0,0,1-7.65,4.41" transform="translate(143.97 137.93)"/><path d="M247.17,132.41v48.64c-6,2.12-11.92,4.24-17.66,6.53V132.41a8.83,8.83,0,0,1,17.66,0" transform="translate(143.97 137.93)"/><path d="M247.17,181.05v30.81a8.83,8.83,0,0,1-17.66,0V187.59c5.74-2.29,11.65-4.41,17.66-6.53" transform="translate(143.97 137.93)"/><path d="M220.58,229.4a8.75,8.75,0,0,1-6.24-2.59l-39.29-39.28A8.83,8.83,0,0,1,187.53,175l39.28,39.29a8.83,8.83,0,0,1-6.24,15.07" transform="translate(143.97 137.93)"/><path class="cls-6" d="M264.83,238.34a26.48,26.48,0,1,1-26.48-26.48,26.48,26.48,0,0,1,26.48,26.48" transform="translate(143.97 137.93)"/></g><g class="cls-7"><rect class="cls-8" x="143.97" y="137.93" width="476.69" height="476.69"/></g><g class="cls-9"><rect class="cls-10" x="224.94" y="266.36" width="283.99" height="283.99" transform="translate(-27.42 654) rotate(-59.37)"/></g><g class="cls-11"><rect class="cls-12" x="456.44" y="417.53" width="199.53" height="198.75"/></g><g class="cls-13"><rect class="cls-14" x="456.76" y="437.16" width="179.59" height="179.59"/></g><g class="cls-15"><rect class="cls-16" x="424.18" y="549.24" width="15.3" height="16.15"/></g><g class="cls-17"><rect class="cls-18" x="542.45" y="476.27" width="15.3" height="16.15"/></g><g class="cls-19"><rect class="cls-20" x="563.46" y="423.88" width="15.3" height="16.15"/></g><g class="cls-21"><rect class="cls-22" x="458.56" y="411.05" width="15.3" height="16.15"/></g><g class="cls-23"><rect class="cls-24" x="605.04" y="625.75" width="15.3" height="16.15"/></g><g class="cls-25"><rect class="cls-26" x="507.37" y="615.45" width="15.3" height="16.15"/></g></svg>