<svg id="Слой_1" data-name="Слой 1" xmlns="http://www.w3.org/2000/svg" xmlns:xlink="http://www.w3.org/1999/xlink" viewBox="0 0 765.47 767.34"><defs><style>.cls-1{fill:none;}.cls-2{clip-path:url(#clip-path);}.cls-3{fill:url(#Безымянный_градиент);}.cls-4{clip-path:url(#clip-path-2);}.cls-5{fill:#5e5f62;}.cls-6{fill:#f5811c;}.cls-7{clip-path:url(#clip-path-3);}.cls-8{fill:url(#Безымянный_градиент_2);}.cls-9{clip-path:url(#clip-path-4);}.cls-10{fill:url(#Безымянный_градиент_3);}.cls-11{fill:#ededed;}.cls-12{fill:#b1b2b6;}.cls-13{fill:#344d5b;}.cls-14{font-size:63.31px;}.cls-14,.cls-15{fill:#2f5b87;font-family:Roboto-Regular, Roboto;}.cls-15{font-size:28px;}.cls-16{letter-spacing:-0.01em;}</style><clipPath id="clip-path" transform="translate(143.97 137.93)"><path class="cls-1" d="M256,79.45a17.65,17.65,0,1,1-35.31,0V36.9A202.09,202.09,0,0,0,36.9,220.69H79.45a17.65,17.65,0,0,1,0,35.31H36.9a197.67,197.67,0,0,0,11.48,51.73A202.24,202.24,0,1,0,256,36.9Z"/></clipPath><linearGradient id="Безымянный_градиент" y1="511.99" x2="1" y2="511.99" gradientTransform="matrix(0, 404.55, 404.55, 0, -206885.88, 36.86)" gradientUnits="userSpaceOnUse"><stop offset="0" stop-color="#09d1f1"/><stop offset="1" stop-color="#09b1f1"/></linearGradient><clipPath id="clip-path-2" transform="translate(143.97 137.93)"><rect class="cls-1" width="512" height="512"/></clipPath><clipPath id="clip-path-3" transform="translate(143.97 137.93)"><path class="cls-1" d="M256,79.45V36.9A202.23,202.23,0,1,1,36.9,256H79.45a17.65,17.65,0,0,0,0-35.31H36.9A202.09,202.09,0,0,1,220.69,36.9V79.45a17.65,17.65,0,1,0,35.31,0M238.34,0C106.71,0,0,106.71,0,238.34S106.71,476.69,238.34,476.69,476.69,370,476.69,238.34,370,0,238.34,0Z"/></clipPath><linearGradient id="Безымянный_градиент_2" y1="512" x2="1" y2="512" gradientTransform="matrix(476.69, 0, 0, -476.69, 143.97, 244442.27)" gradientUnits="userSpaceOnUse"><stop offset="0" stop-color="#f68726"/><stop offset="0.01" stop-color="#f68726"/><stop offset="1" stop-color="#f5811c"/></linearGradient><clipPath id="clip-path-4" transform="translate(143.97 137.93)"><path class="cls-1" d="M265.87,388.93A123.07,123.07,0,1,0,388.93,265.87,123.06,123.06,0,0,0,265.87,388.93"/></clipPath><linearGradient id="Безымянный_градиент_3" y1="512" x2="1" y2="512" gradientTransform="matrix(0, 246.17, 246.17, 0, -125650.81, 265.86)" gradientUnits="userSpaceOnUse"><stop offset="0" stop-color="#f0b61d"/><stop offset="1" stop-color="#ff8e00"/></linearGradient></defs><title>year</title><g class="cls-2"><rect class="cls-3" x="-40.48" y="-36.06" width="558.5" height="563.6" transform="translate(53.09 290.23) rotate(-30)"/></g><g class="cls-4"><path d="M150.07,94.28a8.83,8.83,0,0,1-7.66-4.41L129.18,66.91a8.83,8.83,0,1,1,15.29-8.83L157.7,81a8.82,8.82,0,0,1-7.63,13.24" transform="translate(143.97 137.93)"/><path d="M85.44,158.9A8.79,8.79,0,0,1,81,157.71L58.08,144.47a8.83,8.83,0,1,1,8.82-15.29l23,13.24a8.83,8.83,0,0,1-4.41,16.47" transform="translate(143.97 137.93)"/><path d="M62.53,348.69a8.83,8.83,0,0,1-4.41-16.47L81.06,319a8.83,8.83,0,1,1,8.83,15.29L66.94,347.51a8.85,8.85,0,0,1-4.41,1.18" transform="translate(143.97 137.93)"/><path d="M417.81,144.95,407,151.22q-12.36.53-24.1,1.59a8.83,8.83,0,0,1,4-10.41l22.07-12.71c3.18,4.95,6.09,10.07,8.91,15.27" transform="translate(143.97 137.93)"/><path d="M382.85,152.8q11.78-1.06,24.1-1.59l-11.3,6.54a9,9,0,0,1-12.09-3.26,9.65,9.65,0,0,1-.71-1.68" transform="translate(143.97 137.93)"/><path class="cls-5" d="M418.61,144.51l-.8.44c-2.82-5.21-5.74-10.33-8.91-15.27l.88-.53a8.86,8.86,0,0,1,8.83,15.36" transform="translate(143.97 137.93)"/><path d="M136.83,423a8.83,8.83,0,0,1-7.64-13.24l13.24-23a8.83,8.83,0,0,1,15.29,8.83l-13.24,22.95a8.82,8.82,0,0,1-7.65,4.41" transform="translate(143.97 137.93)"/><path d="M326.62,94.28A8.83,8.83,0,0,1,319,81l13.24-23a8.83,8.83,0,1,1,15.29,8.83L334.27,89.86a8.82,8.82,0,0,1-7.65,4.41" transform="translate(143.97 137.93)"/><path d="M294.42,139.68a8.83,8.83,0,0,0-12,3.44l-26.75,48.26L243.9,212.61a8.83,8.83,0,0,0,15.44,8.56l14.94-26.95,23.58-42.54a8.83,8.83,0,0,0-3.44-12" transform="translate(143.97 137.93)"/><path d="M318,243.82a8.74,8.74,0,0,1-6.24,2.59H256.23a8.83,8.83,0,0,1,0-17.65h55.56A8.82,8.82,0,0,1,318,243.82" transform="translate(143.97 137.93)"/><path class="cls-6" d="M264.83,238.34a26.48,26.48,0,1,1-26.48-26.48,26.48,26.48,0,0,1,26.48,26.48" transform="translate(143.97 137.93)"/></g><g class="cls-7"><rect class="cls-8" x="143.97" y="137.93" width="476.69" height="476.69"/></g><g class="cls-9"><rect class="cls-10" x="220.83" y="220.83" width="336.22" height="336.22" transform="translate(1.61 384.5) rotate(-30)"/></g><g class="cls-4"><path class="cls-11" d="M445.43,327.51h-113a9.22,9.22,0,0,0-9.22,9.22v109a9.22,9.22,0,0,0,9.22,9.22h113a9.22,9.22,0,0,0,9.22-9.22v-109a9.22,9.22,0,0,0-9.22-9.22" transform="translate(143.97 137.93)"/><path class="cls-11" d="M323.22,391.24,318,435.57c-.53,4.5,3.55,8.2,9.12,8.2h123.6c5.57,0,9.65-3.7,9.12-8.2l-5.21-44.33Z" transform="translate(143.97 137.93)"/><path class="cls-12" d="M346.81,331.19a5.6,5.6,0,1,1-5.6,5.6,5.6,5.6,0,0,1,5.6-5.6" transform="translate(143.97 137.93)"/><path class="cls-12" d="M374.89,331.19a5.6,5.6,0,1,1-5.6,5.6,5.6,5.6,0,0,1,5.6-5.6" transform="translate(143.97 137.93)"/><path class="cls-12" d="M403,331.19a5.6,5.6,0,1,1-5.6,5.6,5.6,5.6,0,0,1,5.6-5.6" transform="translate(143.97 137.93)"/><path class="cls-12" d="M431.06,331.19a5.6,5.6,0,1,1-5.6,5.6,5.6,5.6,0,0,1,5.6-5.6" transform="translate(143.97 137.93)"/><path class="cls-13" d="M346.81,316.08a2.67,2.67,0,0,0-2.67,2.67v17.53a2.67,2.67,0,0,0,5.35,0V318.75a2.67,2.67,0,0,0-2.67-2.67" transform="translate(143.97 137.93)"/><path class="cls-13" d="M374.89,316.08a2.67,2.67,0,0,0-2.67,2.67v17.53a2.67,2.67,0,0,0,5.35,0V318.75a2.67,2.67,0,0,0-2.67-2.67" transform="translate(143.97 137.93)"/><path class="cls-13" d="M403,316.08a2.67,2.67,0,0,0-2.67,2.67v17.53a2.67,2.67,0,0,0,5.35,0V318.75a2.67,2.67,0,0,0-2.67-2.67" transform="translate(143.97 137.93)"/><path class="cls-13" d="M431.06,316.08a2.67,2.67,0,0,0-2.67,2.67v17.53a2.67,2.67,0,0,0,5.35,0V318.75a2.67,2.67,0,0,0-2.67-2.67" transform="translate(143.97 137.93)"/></g><text class="cls-14" transform="translate(480.83 543.17)">365</text><text class="cls-15" transform="translate(504.91 569.39)">d<tspan class="cls-16" x="15.91" y="0">a</tspan><tspan x="31.11" y="0">ys</tspan></text></svg>